General
Complete name                            : Margin Call [2011] 720p BRRip H264 AAC - CODY.mp4
Format                                   : MPEG-4
Format profile                           : Base Media
Codec ID                                 : isom
File size                                : 1.67 GiB
Duration                                 : 1h 42mn
Overall bit rate mode                    : Variable
Overall bit rate                         : 2 346 Kbps
Encoded date                             : UTC 2011-10-30 17:53:51
Tagged date                              : UTC 2011-10-30 17:53:51

Video
ID                                       : 1
Format                                   : AVC
Format/Info                              : Advanced Video Codec
Format profile                           : High@L4.1
Format settings, CABAC                   : Yes
Format settings, ReFrames                : 4 frames
Codec ID                                 : avc1
Codec ID/Info                            : Advanced Video Coding
Duration                                 : 1h 42mn
Bit rate                                 : 2 000 Kbps
Maximum bit rate                         : 11.3 Mbps
Width                                    : 1 280 pixels
Height                                   : 688 pixels
Display aspect ratio                     : 1.860
Frame rate mode                          : Constant
Frame rate                               : 25.000 fps
Color space                              : YUV
Chroma subsampling                       : 4:2:0
Bit depth                                : 8 bits
Scan type                                : Progressive
Bits/(Pixel*Frame)                       : 0.091
Stream size                              : 1.43 GiB (85%)
Writing library                          : x264 core 119 r2106 07efeb4
Encoding settings                        : cabac=1 / ref=4 / deblock=1:0:0 / analyse=0x3:0x113 /
 me=umh / subme=9 / psy=1 / psy_rd=1.00:1.00 / mixed_ref=1 / me_range=16 / chroma_me=1 /
 trellis=2 / 8x8dct=1 / cqm=0 / deadzone=21,11 / fast_pskip=0 / chroma_qp_offset=-6 / threads=12 /
 sliced_threads=0 / nr=0 / decimate=1 / interlaced=0 / bluray_compat=0 / constrained_intra=0 / 
bframes=3 / b_pyramid=2 / b_adapt=2 / b_bias=0 / direct=3 / weightb=1 / open_gop=0 / weightp=2 /
 keyint=250 / keyint_min=25 / scenecut=40 / intra_refresh=0 / rc_lookahead=50 / rc=2pass / 
mbtree=1 / bitrate=2000 / ratetol=1.0 / qcomp=0.60 / qpmin=10 / qpmax=51 / qpstep=4 / 
cplxblur=20.0 / qblur=0.5 / vbv_maxrate=40000 / vbv_bufsize=40000 / nal_hrd=none 
ip_ratio=1.40 / aq=1:1.00
Encoded date                             : UTC 2011-10-30 17:53:51
Tagged date                              : UTC 2011-10-30 17:54:28

Audio
ID                                       : 2
Format                                   : AAC
Format/Info                              : Advanced Audio Codec
Format profile                           : LC
Codec ID                                 : 40
Duration                                 : 1h 42mn
Bit rate mode                            : Variable
Bit rate                                 : 342 Kbps
Maximum bit rate                         : 465 Kbps
Channel(s)                               : 6 channels
Channel positions                        : Front: L C R, Side: L R, LFE
Sampling rate                            : 48.0 KHz
Compression mode                         : Lossy
Stream size                              : 250 MiB (15%)
Encoded date                             : UTC 2011-10-30 17:54:22
Tagged date                              : UTC 2011-10-30 17:54:28




IMDB link:                                 http://www.imdb.com/title/tt1615147/




Subtitles included                       : Romanian




Plase seeed at least 1,5:1. This way this torrent has a chance to survive !




Thanks. Enjoy !!!
